<svg width="22" height="22" viewBox="0 0 22 22" fill="none" xmlns="http://www.w3.org/2000/svg">
<path fill-rule="evenodd" clip-rule="evenodd" d="M11 22C17.0753 22 22 17.0753 22 11C22 4.9247 17.0753 0 11 0C4.9247 0 0 4.9247 0 11C0 17.0753 4.9247 22 11 22ZM16.9081 7.5185C16.9596 7.46549 16.9998 7.40265 17.0265 7.33374C17.0531 7.26483 17.0656 7.19125 17.0632 7.11741C17.0607 7.04357 17.0435 6.97097 17.0124 6.90395C16.9813 6.83693 16.937 6.77686 16.8822 6.72733C16.8274 6.67779 16.7631 6.63981 16.6933 6.61565C16.6235 6.59149 16.5495 6.58165 16.4758 6.5867C16.4021 6.59176 16.3302 6.61161 16.2643 6.64508C16.1984 6.67855 16.14 6.72495 16.0924 6.7815L9.504 14.0618L5.8795 10.6018C5.77404 10.501 5.63285 10.4462 5.48701 10.4495C5.34116 10.4528 5.2026 10.5139 5.1018 10.6194C5.001 10.7249 4.94623 10.866 4.94953 11.0119C4.95283 11.1577 5.01394 11.2963 5.1194 11.3971L9.1531 15.2471L9.56175 15.6376L9.9407 15.2185L16.9081 7.5185Z" fill="black"/>
</svg>
