<svg width="78" height="70" viewBox="0 0 78 70" fill="none" xmlns="http://www.w3.org/2000/svg">
<path d="M62 0C66.1109 0 70.0533 1.54523 72.9602 4.29577C75.867 7.0463 77.5 10.7768 77.5 14.6667V44C77.5 47.8898 75.867 51.6204 72.9602 54.3709C70.0533 57.1214 66.1109 58.6667 62 58.6667H43.6945L25.2417 69.1423C24.686 69.4579 24.0555 69.6365 23.408 69.6619C22.7604 69.6872 22.1165 69.5585 21.5351 69.2875C20.9538 69.0164 20.4535 68.6117 20.0802 68.1104C19.7069 67.6091 19.4724 67.0272 19.3983 66.418L19.375 66V58.6667H15.5C11.5233 58.6667 7.69874 57.2204 4.81735 54.627C1.93597 52.0336 0.21821 48.4915 0.0193754 44.7333L0 44V14.6667C0 10.7768 1.63303 7.0463 4.53984 4.29577C7.44666 1.54523 11.3891 0 15.5 0H62ZM51.15 34.0487C50.4162 33.368 49.4267 32.9911 48.3991 33.0007C47.3716 33.0103 46.3902 33.4058 45.6707 34.1C44.7687 34.9714 43.692 35.6637 42.5036 36.1363C41.3152 36.609 40.0391 36.8524 38.75 36.8524C37.4609 36.8524 36.1848 36.609 34.9964 36.1363C33.808 35.6637 32.7313 34.9714 31.8292 34.1C31.1062 33.4218 30.1301 33.0401 29.1119 33.0374C28.0938 33.0348 27.1155 33.4114 26.3885 34.0858C25.6615 34.7602 25.2442 35.6783 25.2268 36.6416C25.2095 37.6048 25.5934 38.5358 26.2958 39.2333C27.9193 40.801 29.8571 42.0464 31.9956 42.8966C34.1341 43.7467 36.4304 44.1847 38.75 44.1847C41.0696 44.1847 43.3659 43.7467 45.5044 42.8966C47.6429 42.0464 49.5807 40.801 51.2043 39.2333C51.9235 38.5389 52.3219 37.6027 52.3117 36.6304C52.3016 35.6581 51.8837 34.7294 51.15 34.0487ZM29.1013 18.3333H29.0625C28.0348 18.3333 27.0492 18.7196 26.3225 19.4073C25.5958 20.0949 25.1875 21.0275 25.1875 22C25.1875 22.9725 25.5958 23.9051 26.3225 24.5927C27.0492 25.2804 28.0348 25.6667 29.0625 25.6667H29.1013C30.129 25.6667 31.1146 25.2804 31.8413 24.5927C32.568 23.9051 32.9762 22.9725 32.9762 22C32.9762 21.0275 32.568 20.0949 31.8413 19.4073C31.1146 18.7196 30.129 18.3333 29.1013 18.3333ZM48.4762 18.3333H48.4375C47.4098 18.3333 46.4242 18.7196 45.6975 19.4073C44.9708 20.0949 44.5625 21.0275 44.5625 22C44.5625 22.9725 44.9708 23.9051 45.6975 24.5927C46.4242 25.2804 47.4098 25.6667 48.4375 25.6667H48.4762C49.504 25.6667 50.4896 25.2804 51.2163 24.5927C51.943 23.9051 52.3512 22.9725 52.3512 22C52.3512 21.0275 51.943 20.0949 51.2163 19.4073C50.4896 18.7196 49.504 18.3333 48.4762 18.3333Z" fill="#0FA958"/>
</svg>
