<svg width="19" height="20" viewBox="0 0 19 20" fill="none" xmlns="http://www.w3.org/2000/svg">
<path d="M14.2502 12.5H4.75016L1.5835 15.8333V2.50001C1.5835 2.27899 1.6669 2.06703 1.81537 1.91075C1.96384 1.75447 2.1652 1.66667 2.37516 1.66667H14.2502C14.4601 1.66667 14.6615 1.75447 14.81 1.91075C14.9584 2.06703 15.0418 2.27899 15.0418 2.50001V11.6667C15.0418 11.8877 14.9584 12.0996 14.81 12.2559C14.6615 12.4122 14.4601 12.5 14.2502 12.5ZM18.2085 7.5V19.1667L15.0418 15.8333H6.3335C6.12353 15.8333 5.92217 15.7455 5.7737 15.5893C5.62524 15.433 5.54183 15.221 5.54183 15V14.1667H16.6252V6.66667H17.4168C17.6268 6.66667 17.8282 6.75447 17.9766 6.91075C18.1251 7.06703 18.2085 7.27899 18.2085 7.5ZM6.48391 3.33334C5.79516 3.33334 5.241 3.50001 4.8135 3.82501C4.40183 4.16667 4.196 4.64167 4.20391 5.30001L4.21183 5.325H5.73975C5.74766 5.075 5.81891 4.88334 5.96141 4.75C6.10801 4.62204 6.29351 4.55399 6.48391 4.55834C6.72933 4.55834 6.93516 4.64167 7.07766 4.79167C7.22016 4.95001 7.2835 5.16667 7.2835 5.41667C7.2835 5.68334 7.22808 5.90834 7.10141 6.10001C6.99058 6.29167 6.82433 6.45834 6.6185 6.59167C6.21475 6.875 5.93766 7.125 5.78725 7.35C5.62891 7.56667 5.54183 7.91667 5.54183 8.33334H7.12516C7.12516 8.07501 7.15683 7.86667 7.22808 7.71667C7.29933 7.56667 7.43391 7.41667 7.63183 7.28334C7.98808 7.08334 8.281 6.84167 8.51058 6.50834C8.74016 6.175 8.85891 5.83334 8.85891 5.41667C8.85891 4.78334 8.64516 4.275 8.21766 3.9C7.79808 3.525 7.22016 3.33334 6.48391 3.33334ZM5.54183 9.16667V10.8333H7.12516V9.16667H5.54183ZM10.2918 10.8333H11.8752V9.16667H10.2918V10.8333ZM10.2918 3.33334V8.33334H11.8752V3.33334H10.2918Z" fill="black"/>
</svg>
