<svg width="19" height="21" viewBox="0 0 19 21" fill="none" xmlns="http://www.w3.org/2000/svg">
<path d="M16.242 12.3848L11.2054 17.9515C11.0761 18.0927 10.9307 18.1985 10.7692 18.2691C10.6077 18.3397 10.4468 18.375 10.2863 18.375C10.1259 18.375 9.96621 18.3397 9.80735 18.2691C9.64849 18.1985 9.50441 18.0927 9.3751 17.9515L2.75518 10.6488C2.6301 10.5222 2.53563 10.3711 2.47177 10.1955C2.40791 10.0205 2.37598 9.83617 2.37598 9.6425V4.05475C2.37598 3.66158 2.50053 3.325 2.74964 3.045C2.99875 2.765 3.30539 2.625 3.66956 2.625H8.72514C8.89614 2.625 9.06213 2.66321 9.2231 2.73963C9.38407 2.81604 9.52314 2.91929 9.64031 3.04937L16.242 10.3504C16.374 10.4933 16.47 10.654 16.5302 10.8325C16.5904 11.011 16.6204 11.191 16.6204 11.3724C16.6204 11.5538 16.5904 11.7317 16.5302 11.9061C16.47 12.0805 16.374 12.2401 16.242 12.3848ZM5.1856 6.61325C5.4078 6.61325 5.59621 6.52808 5.75085 6.35775C5.90549 6.18742 5.98307 5.98092 5.9836 5.73825C5.9836 5.49033 5.90655 5.27975 5.75243 5.1065C5.59832 4.93325 5.41149 4.84663 5.19193 4.84663C4.96763 4.84663 4.7771 4.93267 4.62035 5.10475C4.4636 5.27683 4.38523 5.48567 4.38523 5.73125C4.38523 5.97683 4.46307 6.18537 4.61877 6.35687C4.77446 6.52837 4.96341 6.61383 5.1856 6.61325Z" fill="black"/>
</svg>
