<svg width="22" height="22" viewBox="0 0 22 22" fill="none" xmlns="http://www.w3.org/2000/svg">
<g clip-path="url(#clip0_42_723)">
<path fill-rule="evenodd" clip-rule="evenodd" d="M18.278 -8.06958e-05C18.8142 -8.06958e-05 19.2501 0.435794 19.2501 0.972044V2.74992H21.028C21.2203 2.74988 21.4083 2.80687 21.5682 2.91369C21.7281 3.0205 21.8527 3.17234 21.9263 3.35C21.9999 3.52766 22.0191 3.72315 21.9816 3.91175C21.9441 4.10036 21.8515 4.27359 21.7155 4.40954L19.708 6.41704C19.4149 6.70951 19.0179 6.87412 18.6038 6.87492H16.5826L11.7288 11.7287C11.5334 11.9108 11.2748 12.01 11.0076 12.0053C10.7405 12.0006 10.4856 11.8923 10.2966 11.7034C10.1077 11.5145 9.99944 11.2596 9.99473 10.9924C9.99002 10.7252 10.0892 10.4667 10.2713 10.2712L15.1251 5.41742V3.39617C15.1251 2.98229 15.2901 2.58492 15.583 2.29067L17.5905 0.283169C17.6804 0.192476 17.7876 0.120601 17.9056 0.071734C18.0236 0.0228674 18.1502 -0.00201264 18.278 -0.0014557M3.43759 10.9999C3.43745 9.87866 3.68664 8.77139 4.16711 7.75829C4.64759 6.74519 5.34733 5.85161 6.21568 5.14225C7.08403 4.43288 8.09925 3.92548 9.18784 3.65679C10.2764 3.38809 11.4112 3.36482 12.5098 3.58867C12.7765 3.63955 13.0524 3.58324 13.2778 3.43196C13.5032 3.28068 13.6599 3.04663 13.7138 2.78058C13.7678 2.51454 13.7146 2.23796 13.5659 2.01084C13.4172 1.78373 13.185 1.6244 12.9196 1.56742C10.8924 1.15527 8.78633 1.40722 6.91355 2.28593C5.04077 3.16464 3.50094 4.62336 2.52225 6.44589C1.54356 8.26841 1.1781 10.3578 1.48004 12.4043C1.78198 14.4508 2.73524 16.3456 4.19855 17.8079C5.66187 19.2701 7.55736 20.222 9.6041 20.5224C11.6509 20.8228 13.7399 20.4559 15.5617 19.4758C17.3836 18.4958 18.8411 16.9549 19.7185 15.0815C20.5958 13.2081 20.8462 11.1018 20.4326 9.07492C20.3781 8.80689 20.2193 8.57149 19.9912 8.42051C19.7632 8.26953 19.4844 8.21534 19.2164 8.26986C18.9484 8.32438 18.713 8.48314 18.562 8.71122C18.411 8.9393 18.3568 9.21801 18.4113 9.48604C18.5113 9.97463 18.5617 10.4793 18.5626 10.9999C18.5626 13.0056 17.7658 14.9292 16.3476 16.3474C14.9293 17.7657 13.0058 18.5624 11.0001 18.5624C8.9944 18.5624 7.07084 17.7657 5.6526 16.3474C4.23436 14.9292 3.43759 13.0056 3.43759 10.9999ZM10.8131 7.56792C11.0862 7.55333 11.3424 7.43084 11.5252 7.22739C11.708 7.02393 11.8026 6.75619 11.788 6.48305C11.7734 6.20991 11.6509 5.95375 11.4474 5.77092C11.244 5.5881 10.9762 5.49358 10.7031 5.50817C9.64699 5.56508 8.6297 5.92529 7.7731 6.54564C6.91649 7.16598 6.25692 8.02015 5.8734 9.00581C5.48989 9.99146 5.39869 11.0668 5.61075 12.1029C5.8228 13.1391 6.32911 14.0921 7.06901 14.8479C7.80891 15.6036 8.75102 16.13 9.78245 16.364C10.8139 16.5979 11.8909 16.5295 12.8845 16.167C13.878 15.8044 14.746 15.1631 15.3843 14.3198C16.0227 13.4765 16.4043 12.4671 16.4836 11.4124C16.5038 11.1396 16.4149 10.87 16.2363 10.6628C16.0577 10.4556 15.8042 10.3278 15.5314 10.3076C15.2586 10.2874 14.989 10.3763 14.7818 10.5549C14.5746 10.7335 14.4468 10.987 14.4266 11.2598C14.3764 11.9186 14.1375 12.549 13.7383 13.0755C13.3392 13.6021 12.7967 14.0024 12.1759 14.2286C11.5551 14.4548 10.8823 14.4973 10.238 14.3511C9.59364 14.2048 9.00512 13.8759 8.54286 13.4038C8.08061 12.9317 7.7642 12.3364 7.63153 11.6891C7.49885 11.0419 7.55553 10.3701 7.79477 9.75418C8.03401 9.13829 8.44568 8.6044 8.9805 8.21642C9.51532 7.82844 10.1506 7.60281 10.8103 7.56654" fill="black"/>
</g>
<defs>
<clipPath id="clip0_42_723">
<rect width="22" height="22" fill="white"/>
</clipPath>
</defs>
</svg>
