<svg width="21" height="21" viewBox="0 0 21 21" fill="none" xmlns="http://www.w3.org/2000/svg">
<path fill-rule="evenodd" clip-rule="evenodd" d="M2.85998 6.26138L8.92935 2.0115C9.25519 1.78342 9.65828 1.69408 10.05 1.76314C10.4417 1.83219 10.7899 2.05399 11.0181 2.37975L11.9755 3.74663C11.9895 3.76663 12.0028 3.787 12.0156 3.80775L2.85998 6.26138ZM0.804976 11.19L0.389851 9.6405C0.287018 9.2562 0.341056 8.8468 0.540078 8.50234C0.739101 8.15788 1.0668 7.90659 1.4511 7.80375L16.6641 3.7275C17.0483 3.62453 17.4578 3.67841 17.8023 3.87729C18.1468 4.07617 18.3982 4.40376 18.5012 4.788L18.9328 6.39975C18.9938 6.62729 18.9865 6.86775 18.9117 7.09114C18.837 7.31453 18.6981 7.51098 18.5125 7.656C18.2207 7.88354 18.0028 8.19229 17.8861 8.5434C17.7695 8.8945 17.7592 9.27227 17.8568 9.62917C17.9543 9.98607 18.1552 10.3061 18.4343 10.5491C18.7133 10.7921 19.0579 10.9471 19.4249 10.9946C19.6515 11.0242 19.8642 11.1203 20.0362 11.2709C20.2081 11.4214 20.3316 11.6195 20.3909 11.8403L20.8304 13.4816C20.9333 13.8659 20.8794 14.2753 20.6806 14.6198C20.4817 14.9643 20.1541 15.2158 19.7698 15.3188L4.5561 19.395C4.1719 19.4979 3.76258 19.4439 3.41815 19.2451C3.07371 19.0462 2.82235 18.7187 2.71935 18.3345L2.30573 16.7903C2.24035 16.5472 2.24663 16.2905 2.32381 16.051C2.40099 15.8115 2.54577 15.5994 2.74073 15.4403C3.02085 15.2116 3.2289 14.9068 3.33981 14.5626C3.45072 14.2185 3.45976 13.8496 3.36584 13.5004C3.27193 13.1512 3.07906 12.8366 2.81047 12.5945C2.54187 12.3523 2.20901 12.193 1.85198 12.1358C1.60498 12.0959 1.37478 11.9855 1.18908 11.8178C1.00339 11.6502 0.870128 11.4324 0.805351 11.1908M14.1096 8.68238C14.254 8.6457 14.3897 8.58071 14.5087 8.49118C14.6278 8.40165 14.7279 8.28936 14.8032 8.16083C14.8786 8.0323 14.9276 7.89009 14.9475 7.74245C14.9675 7.59481 14.9579 7.44469 14.9193 7.30079C14.8807 7.15689 14.814 7.02209 14.7229 6.9042C14.6318 6.78631 14.5182 6.68768 14.3887 6.61405C14.2592 6.54041 14.1164 6.49323 13.9685 6.47524C13.8206 6.45725 13.6706 6.46881 13.5272 6.50925C13.2425 6.58956 13.0009 6.77877 12.8547 7.03593C12.7085 7.29308 12.6694 7.59748 12.746 7.88322C12.8226 8.16895 13.0086 8.41303 13.2638 8.5626C13.519 8.71218 13.8229 8.75521 14.1096 8.68238ZM14.8858 11.5804C15.0286 11.5422 15.1624 11.4762 15.2796 11.3863C15.3968 11.2964 15.4952 11.1842 15.5691 11.0563C15.643 10.9284 15.6909 10.7871 15.7102 10.6407C15.7295 10.4942 15.7198 10.3453 15.6816 10.2026C15.6434 10.0599 15.5774 9.92612 15.4875 9.8089C15.3976 9.69167 15.2855 9.5933 15.1575 9.51941C15.0296 9.44552 14.8884 9.39755 14.7419 9.37824C14.5954 9.35893 14.4466 9.36866 14.3039 9.40688C14.0156 9.48411 13.7699 9.67267 13.6207 9.93108C13.4715 10.1895 13.4311 10.4966 13.5083 10.7848C13.5855 11.073 13.7741 11.3188 14.0325 11.468C14.2909 11.6172 14.5976 11.6576 14.8858 11.5804ZM15.6629 14.478C15.8076 14.4417 15.9437 14.377 16.0632 14.2876C16.1828 14.1981 16.2833 14.0858 16.359 13.9572C16.4346 13.8285 16.484 13.6861 16.504 13.5382C16.5241 13.3903 16.5146 13.2399 16.476 13.0957C16.4374 12.9516 16.3705 12.8165 16.2791 12.6984C16.1878 12.5804 16.0739 12.4817 15.9441 12.4081C15.8142 12.3345 15.671 12.2874 15.5228 12.2697C15.3746 12.252 15.2244 12.264 15.0809 12.3049C14.7969 12.3858 14.5562 12.5751 14.4106 12.832C14.265 13.0888 14.2262 13.3926 14.3026 13.6778C14.379 13.963 14.5644 14.2067 14.8189 14.3564C15.0733 14.5061 15.3765 14.5498 15.6629 14.478Z" fill="black"/>
</svg>
