<svg width="22" height="24" viewBox="0 0 22 24" fill="none" xmlns="http://www.w3.org/2000/svg">
<path d="M19.2077 2.83202H14.6073C13.7761 2.83402 13.8072 3.77003 14.6073 3.76453H19.2077V4.24303H14.6073C13.7807 4.23753 13.8111 5.17304 14.6073 5.17554H19.2077V5.66454H14.6073C13.7807 5.66454 13.8111 6.59955 14.6073 6.59705H19.2077V7.06305H14.6073C13.7979 7.06755 13.8111 8.00356 14.6073 8.00656H19.2077V8.47356H14.6073C13.7979 8.47156 13.7946 9.40606 14.6073 9.40606H19.2077V9.87207H14.6073C13.7979 9.87407 13.7946 10.8096 14.6073 10.8051H19.2077V11.2826H14.6073C13.7979 11.2771 13.7946 12.2116 14.6073 12.2151H19.2077V12.6801H14.6073C13.7979 12.6796 13.8111 13.6161 14.6073 13.6131H19.2077V22.6927C19.2104 24.0762 21.9921 24.0512 22 22.6927V1.44501C21.9921 0.813006 21.3051 0.0140001 20.1747 0.0115001H14.6073C13.7761 0.0120001 13.8072 0.948007 14.6073 0.944007L19.2077 0.955507V1.42051H14.6073C13.7774 1.41751 13.8085 2.35302 14.6073 2.35352H19.2077V2.83202ZM14.291 18.9291C14.2883 17.3141 12.0725 15.5771 9.42517 16.7021V10.5251L7.71301 0.337502C7.67727 0.0680004 7.37481 0.00450003 7.17163 0C6.96182 0.00450003 6.54156 0.0680004 6.49589 0.337502L4.79234 10.5251V16.7021C2.145 15.5771 0.000661833 17.3251 0 18.9166C0.000661833 20.3326 1.44346 21.4956 3.39587 21.4921C5.36284 21.4956 6.77784 20.1921 6.77784 18.9166V12.5001H7.43967V18.9166C7.43967 20.3446 8.90364 21.4016 10.5304 21.4686C10.5033 22.2517 10.8415 23.3687 11.4782 23.8117C12.2247 24.3317 13.1136 23.6667 12.7489 23.1252C12.3968 22.6212 12.0513 22.3227 12.3319 21.2221C13.5047 20.8121 14.2883 19.9491 14.291 18.9291ZM3.47132 20.1996C3.02503 20.1996 2.59703 20.0657 2.28146 19.8273C1.96589 19.5889 1.7886 19.2655 1.7886 18.9284C1.7886 18.5912 1.96589 18.2679 2.28146 18.0295C2.59703 17.7911 3.02503 17.6571 3.47132 17.6571C4.38862 17.6611 5.13583 18.2296 5.14245 18.9291C5.1409 19.2644 4.96467 19.5856 4.65191 19.8234C4.33915 20.0612 3.91501 20.1964 3.47132 20.1996ZM9.14389 18.9291C9.14543 18.5937 9.32168 18.2722 9.63454 18.0341C9.94739 17.7961 10.3717 17.6607 10.8157 17.6571C11.2597 17.6604 11.6842 17.7958 11.997 18.0339C12.3098 18.272 12.4858 18.5937 12.4868 18.9291C12.4861 19.2646 12.3102 19.5862 11.9972 19.8241C11.6843 20.062 11.2596 20.197 10.8157 20.1996C10.3719 20.1965 9.94757 20.0614 9.63466 19.8236C9.32175 19.5858 9.14544 19.2644 9.14389 18.9291Z" fill="black"/>
</svg>
