<svg width="21" height="25" viewBox="0 0 21 25" fill="none" xmlns="http://www.w3.org/2000/svg">
<path d="M6.58219 1.5644C6.72656 0.954102 6.51328 0.285211 6.10312 0.0703851C5.69297 -0.144441 5.24344 0.172916 5.09906 0.783218L4.74797 2.25771L4.42312 0.802747C4.28531 0.187563 3.83906 -0.144441 3.42562 0.0606203C3.01219 0.265682 2.78906 0.92969 2.92687 1.54487L3.19922 2.76548L2.30016 1.789C1.94906 1.40817 1.45687 1.52534 1.20094 2.04776C0.945 2.57018 1.02375 3.30254 1.37484 3.68337L2.30344 4.68915H1.575C0.705469 4.68915 0 5.73887 0 7.03271V22.6564C0 23.9503 0.705469 25 1.575 25H6.58219C6.405 24.5411 6.3 24.0089 6.3 23.4376V12.501C6.3 11.0412 6.97266 9.81569 7.88156 9.47392C7.94062 7.96037 8.44266 6.63235 9.19734 5.7584C8.91516 5.11392 8.42953 4.68915 7.875 4.68915H7.14656L8.07516 3.68337C8.42625 3.30254 8.505 2.57018 8.24906 2.04776C7.99312 1.52534 7.50094 1.40817 7.14984 1.789L6.31641 2.69224L6.58219 1.5644ZM11.9273 9.05891L12.8986 10.9386H11.2875C10.8511 10.9386 10.5 10.4162 10.5 9.76686C10.5 9.12727 10.8544 8.59508 11.2941 8.59508C11.5434 8.59508 11.7764 8.76597 11.9273 9.05891ZM8.925 9.76686C8.925 10.177 8.97094 10.5725 9.05953 10.9386H8.925C8.05547 10.9386 7.35 11.9884 7.35 13.2822V17.1881H13.65V12.501H14.7V17.1881H21V13.2822C21 11.9884 20.2945 10.9386 19.425 10.9386H19.2905C19.3791 10.5725 19.425 10.177 19.425 9.76686C19.425 7.81878 18.3586 6.25152 17.0559 6.25152C16.3209 6.25152 15.6253 6.75929 15.1758 7.62836L14.175 9.5618L13.1742 7.62836C12.7247 6.75929 12.0258 6.25152 11.2941 6.25152C9.99141 6.25152 8.925 7.81878 8.925 9.76686ZM7.35 22.6564C7.35 23.9503 8.05547 25 8.925 25H13.65V18.7505H7.35V22.6564ZM14.7 25H19.425C20.2945 25 21 23.9503 21 22.6564V18.7505H14.7V25ZM17.85 9.76686C17.85 10.4162 17.4989 10.9386 17.0625 10.9386H15.4514L16.4227 9.05891C16.5736 8.77085 16.8066 8.59508 17.0559 8.59508C17.4956 8.59508 17.85 9.12727 17.85 9.76686Z" fill="black"/>
</svg>
