<svg width="22" height="22" viewBox="0 0 22 22" fill="none" xmlns="http://www.w3.org/2000/svg">
<path fill-rule="evenodd" clip-rule="evenodd" d="M22 11C22 17.0753 17.0753 22 11 22C4.9247 22 0 17.0753 0 11C0 4.9247 4.9247 0 11 0C17.0753 0 22 4.9247 22 11ZM6.7221 15.2779C6.61899 15.1748 6.56107 15.0349 6.56107 14.889C6.56107 14.7432 6.61899 14.6033 6.7221 14.5002L10.2223 11L6.7221 7.4998C6.62191 7.39607 6.56648 7.25714 6.56773 7.11293C6.56898 6.96872 6.62683 6.83077 6.7288 6.7288C6.83077 6.62683 6.96872 6.56898 7.11293 6.56773C7.25714 6.56648 7.39607 6.62191 7.4998 6.7221L11 10.2223L14.5002 6.7221C14.6039 6.62191 14.7429 6.56648 14.8871 6.56773C15.0313 6.56898 15.1692 6.62683 15.2712 6.7288C15.3732 6.83077 15.431 6.96872 15.4323 7.11293C15.4335 7.25714 15.3781 7.39607 15.2779 7.4998L11.7777 11L15.2779 14.5002C15.3781 14.6039 15.4335 14.7429 15.4323 14.8871C15.431 15.0313 15.3732 15.1692 15.2712 15.2712C15.1692 15.3732 15.0313 15.431 14.8871 15.4323C14.7429 15.4335 14.6039 15.3781 14.5002 15.2779L11 11.7777L7.4998 15.2779C7.39666 15.381 7.25679 15.4389 7.11095 15.4389C6.96511 15.4389 6.82524 15.381 6.7221 15.2779Z" fill="black"/>
</svg>
